<svg viewBox="0 0 512 512" xmlns="http://www.w3.org/2000/svg">
	<polygon fill="#6F6F6F" points="512,151.978 256,1.618 235.101,279.411 256,489.483 441.928,510.382 512,510.382" />
	<g>
		<polygon fill="#9D9D9D" points="0,151.978 0,510.382 70.072,510.382 256,489.483 256,1.618" />
		<polygon fill="#9D9D9D" points="256,510.382 441.928,510.382 441.928,464.191 235.101,443.291" />
	</g>
	<polygon fill="#D4D4D4" points="256,464.191 441.928,464.191 441.928,417.998 235.101,397.099 "/>
	<polygon fill="#9D9D9D" points="256,417.998 441.928,417.998 441.928,371.806 235.101,350.906 "/>
	<polygon fill="#D4D4D4" points="256,371.806 441.928,371.806 441.928,325.613 235.101,304.714 "/>
	<polygon fill="#9D9D9D" points="256,325.613 441.928,325.613 441.928,279.42 235.101,258.521 "/>
	<polygon fill="#D4D4D4" points="256,279.42 441.928,279.42 441.928,233.229 235.101,212.328 "/>
	<polygon fill="#9D9D9D" points="256,187.036 235.101,210.132 256,233.229 441.928,233.229 441.928,187.036 "/>
	<polygon fill="#D4D4D4" points="70.072,464.191 70.072,510.382 256,510.382 256,443.291 "/>
	<polygon fill="#EDEDED" points="256,397.099 70.072,417.998 70.072,464.191 256,464.191 "/>
	<polygon fill="#D4D4D4" points="256,350.906 70.072,371.806 70.072,417.998 256,417.998 "/>
	<polygon fill="#EDEDED" points="256,304.714 70.072,325.613 70.072,371.806 256,371.806 "/>
	<polygon fill="#D4D4D4" points="256,258.521 70.072,279.42 70.072,325.613 256,325.613 "/>
	<polygon fill="#EDEDED" points="256,212.328 70.072,233.229 70.072,279.42 256,279.42 "/>
	<rect x="70.071" y="187.037" fill="#D4D4D4" width="185.929" height="46.195"/>
</svg>
